<svg width="1920" height="960" viewBox="0 0 1920 960" fill="none" xmlns="http://www.w3.org/2000/svg">
<path d="M18.5525 1322.46C155.785 1296.93 465.076 1235.63 781.175 1147.43C1028.83 1078.31 1232.11 1006.46 1385.3 933.903C1455.62 900.592 1515.32 867.18 1564.22 833.761C1576.69 825.251 1588.45 816.75 1599.5 808.237C1611.08 799.346 1621.89 790.423 1631.92 781.516C1642.44 772.201 1652.08 762.902 1660.89 753.614C1670.16 743.826 1678.47 734.058 1685.84 724.298C1693.68 713.952 1700.44 703.603 1706.12 693.297C1711.46 683.64 1715.86 674.007 1719.31 664.378C1719.78 663.03 1720.25 661.698 1720.71 660.345L1743.56 591.626C1743.08 592.974 1742.62 594.327 1742.15 595.659C1738.71 605.222 1734.38 614.775 1729.07 624.362L1729.07 624.377C1723.38 634.714 1716.63 645.068 1708.8 655.413C1701.44 665.178 1693.12 674.962 1683.86 684.735C1675.07 694.028 1665.42 703.343 1654.92 712.632C1644.9 721.559 1634.1 730.468 1622.51 739.389C1611.41 747.937 1599.6 756.488 1587.07 765.027C1575.07 773.239 1562.41 781.441 1549.1 789.636C1508.22 814.835 1461.22 840.041 1408.15 865.169C1254.95 937.759 1051.67 1009.6 804.01 1078.69C489.054 1166.59 180.852 1227.75 42.8748 1253.47L18.5525 1322.46Z" fill="#17ACBB"/>
<path d="M-30.3368 1461.16C105.398 1435.96 416.881 1374.43 735.256 1285.57C982.917 1216.47 1186.18 1144.62 1339.4 1072.05C1446.49 1021.33 1528.93 970.335 1586.16 919.541C1596.61 910.271 1606.21 901.007 1614.96 891.768C1624.22 881.975 1632.55 872.212 1639.94 862.442C1647.77 852.097 1654.53 841.763 1660.2 831.436C1665.54 821.794 1669.94 812.161 1673.4 802.537C1673.87 801.19 1674.33 799.852 1674.79 798.499C1678.54 787.24 1681.32 775.198 1683.17 762.369C1677.49 772.675 1670.73 783.009 1662.89 793.37C1655.53 803.114 1647.19 812.893 1637.93 822.666C1629.14 831.959 1619.46 841.283 1608.96 850.603C1598.98 859.46 1588.23 868.318 1576.72 877.179C1522.23 919.12 1450.67 961.132 1362.36 1002.96C1209.13 1075.54 1005.87 1147.39 758.203 1216.51C440.971 1305.02 130.602 1366.44 -5.89179 1391.81L-30.3368 1461.16Z" fill="#17ACBB"/>
<path d="M-79.2326 1599.86C54.8811 1575.02 368.582 1513.23 689.324 1423.74C936.991 1354.62 1140.27 1282.78 1293.47 1210.2C1440.83 1140.4 1541.53 1070.09 1594.11 1000.48L1594.11 1000.46C1601.89 990.146 1608.6 979.883 1614.26 969.622C1619.61 959.949 1624.01 950.316 1627.46 940.687C1627.94 939.36 1628.42 938.013 1628.86 936.655L1651.13 869.606C1650.9 870.273 1650.66 870.939 1650.41 871.615C1646.97 881.229 1642.58 890.867 1637.25 900.494L1637.25 900.509C1631.56 910.831 1624.78 921.189 1616.96 931.555C1609.6 941.27 1601.34 950.989 1592.13 960.732C1535.36 1020.72 1443.15 1081.11 1316.44 1141.14C1163.22 1213.72 959.953 1285.57 712.292 1354.67C392.744 1443.81 80.1569 1505.49 -54.7822 1530.5L-79.2326 1599.86Z" fill="#17ACBB"/>
<path d="M-128 1738.21C4.38113 1713.74 320.397 1651.71 643.527 1561.53C891.188 1492.43 1094.45 1420.58 1247.67 1347.99C1437.36 1258.17 1549.73 1167.47 1581.66 1078.46C1582.14 1077.15 1582.61 1075.78 1583.05 1074.44C1586.77 1063.26 1589.54 1051.28 1591.41 1038.51C1547.51 1118.22 1439.8 1199.07 1270.51 1279.25C1117.29 1351.84 914.023 1423.69 666.372 1492.81C344.436 1582.64 29.5644 1644.57 -103.677 1669.21L-128 1738.21Z" fill="#17ACBB"/>
<path d="M1729.07 624.361C1734.38 614.774 1738.71 605.222 1742.15 595.659C1742.62 594.326 1743.08 592.973 1743.56 591.626C1773.18 502.434 1743.32 363.354 1654.71 178.046C1582.05 26.0925 1470.1 -156.513 1321.94 -364.717C1126.28 -639.678 917.931 -887.707 832.651 -987L808.825 -919.41C893.474 -820.885 1102.68 -571.993 1299.09 -295.983C1447.25 -87.7945 1559.2 94.8266 1631.86 246.765C1709.35 408.78 1741.92 535.485 1729.07 624.361Z" fill="#306983"/>
<path d="M1683.86 684.734C1693.12 674.962 1701.44 665.178 1708.8 655.413C1709.34 569.743 1675.93 456.016 1608.9 315.853C1536.25 163.899 1424.3 -18.7224 1276.13 -226.931C1078.96 -503.99 868.899 -753.729 784.877 -851.472L760.934 -783.549C844.28 -686.64 1055.22 -436.013 1253.17 -157.844C1401.33 50.3598 1513.29 232.971 1585.95 384.925C1643.08 504.405 1675.79 604.675 1683.86 684.734Z" fill="#306983"/>
<path d="M1622.51 739.388C1634.1 730.468 1644.9 721.559 1654.92 712.632C1641.42 640.223 1610.72 553.804 1562.98 454.008C1490.34 302.059 1378.36 119.428 1230.21 -88.7557C1031.48 -368.035 819.639 -619.541 736.985 -715.61L713.036 -647.672C794.995 -552.478 1007.73 -300.078 1207.27 -19.6984C1355.41 188.5 1467.37 371.126 1540.03 523.08C1578.76 604.128 1606.3 676.326 1622.51 739.388Z" fill="#306983"/>
<path d="M1549.1 789.635C1562.41 781.44 1575.07 773.239 1587.07 765.026C1570.54 712.829 1547.2 655.169 1517.06 592.147C1444.42 440.198 1332.45 257.587 1184.28 49.3781C983.955 -232.147 770.311 -485.446 689.098 -579.764L665.267 -512.159C745.749 -418.762 960.312 -164.544 1161.44 118.117C1309.61 326.306 1421.57 508.932 1494.22 660.886C1516.11 706.63 1534.39 749.555 1549.1 789.635Z" fill="#306983"/>
<g filter="url(#filter0_b_102_18)">
<path d="M1185.09 -143.43C1245.97 50.5203 1289 252.5 1303.42 412.356C1312.18 509.53 1310.84 592.162 1299.42 657.926C1296.26 676.128 1292.33 693.03 1287.63 708.614C1284.96 717.49 1282.03 725.94 1278.85 733.954C1270.83 733.161 1262.56 731.942 1254.06 730.28C1256.74 721.38 1259.18 712.041 1261.35 702.284C1262.99 694.954 1264.49 687.391 1265.85 679.592C1277.27 613.828 1278.61 531.196 1269.85 434.022C1255.43 274.165 1212.4 72.196 1151.52 -121.765L1185.09 -143.43Z" fill="#20F1FF" fill-opacity="0.7"/>
<path d="M1252.56 -186.985C1313.43 6.96585 1356.47 208.945 1370.89 368.802C1379.66 465.972 1378.32 548.604 1366.9 614.368C1360.12 653.372 1349.78 686.449 1335.99 713.35C1332.33 720.48 1328.44 727.172 1324.3 733.423C1317.21 734.391 1309.88 734.922 1302.31 735.011C1305.97 727.876 1309.38 720.295 1312.54 712.299C1321.31 690.161 1328.2 664.753 1333.16 636.145C1344.58 570.381 1345.93 487.749 1337.16 390.579C1322.73 230.722 1279.7 28.743 1218.82 -165.208L1252.56 -186.985Z" fill="#20F1FF" fill-opacity="0.7"/>
<path d="M1320.03 -230.553C1380.91 -36.5923 1423.95 165.387 1438.37 325.244C1447.14 422.414 1445.8 505.046 1434.37 570.81C1423.99 630.574 1405.25 676.405 1378.52 707.499C1373.9 712.871 1369.04 717.8 1363.94 722.289C1357.83 725.039 1351.46 727.33 1344.85 729.19C1349.48 723.818 1353.84 718 1357.98 711.749C1377.76 681.857 1392.06 641.983 1400.64 592.587C1412.06 526.823 1413.41 444.191 1404.64 347.021C1390.21 187.164 1347.18 -14.8151 1286.3 -208.776L1320.03 -230.553Z" fill="#20F1FF" fill-opacity="0.7"/>
<path d="M1387.35 -274C1448.23 -80.0392 1491.26 121.93 1505.68 281.787C1514.45 378.957 1513.11 461.589 1501.68 527.353C1489.07 600.051 1464.06 652.117 1427.38 682.133C1423.43 685.356 1419.36 688.328 1415.15 691.05L1381.58 712.716C1385.8 709.99 1389.87 707.017 1393.81 703.799C1430.49 673.783 1455.49 621.711 1468.12 549.019C1479.54 483.254 1480.88 400.623 1472.11 303.453C1457.69 143.596 1414.66 -58.3836 1353.78 -252.334L1387.35 -274Z" fill="#20F1FF" fill-opacity="0.7"/>
</g>
<path d="M1195.33 831.151C1194.08 832.259 1192.84 833.328 1191.55 834.379C1187.61 837.601 1183.53 840.573 1179.31 843.299C1177.43 844.515 1175.52 845.67 1173.58 846.793C1113.52 881.372 1026.75 868.231 914.844 807.647C899.117 799.125 882.899 789.681 866.183 779.292C861.179 761.423 857.017 744.838 853.705 729.502C865.144 736.044 877.19 743.36 889.891 751.43C893.191 753.529 896.48 755.598 899.753 757.627C1027.83 837.22 1127 861.848 1195.33 831.151Z" fill="#306983"/>
<path d="M1262.7 787.646C1261.44 788.772 1260.15 789.857 1258.85 790.926C1254.91 794.158 1250.83 797.12 1246.62 799.842C1244.74 801.058 1242.83 802.228 1240.88 803.351C1237.02 805.565 1233.05 807.599 1228.98 809.42L1228.97 809.424C1222.89 812.148 1216.57 814.443 1210 816.288C1140.89 835.748 1044.91 806.774 923.625 729.653C910.846 721.532 898.717 714.18 887.228 707.599C872.541 699.181 858.869 692.015 846.138 686.061C844.481 672.69 843.733 660.626 843.917 649.811C854.93 653.405 866.839 658.182 879.676 664.198C902.44 674.829 928.181 689.312 957.36 707.875C1067.06 777.63 1156.06 807.994 1223.2 798.76C1230.25 797.784 1237.05 796.379 1243.62 794.544C1250.23 792.683 1256.6 790.393 1262.7 787.646Z" fill="#306983"/>
<path d="M1347.84 734.507L1314.1 756.284C1312.22 757.5 1310.31 758.669 1308.36 759.782C1304.51 762.002 1300.55 764.023 1296.47 765.843C1290.36 768.593 1283.98 770.898 1277.37 772.753C1270.77 774.599 1263.92 776.02 1256.83 776.978C1249.78 777.953 1242.48 778.483 1234.95 778.57C1170.78 779.368 1089.22 748.478 991.105 686.094C945.331 656.979 908.03 637.895 877.491 627.981C874.2 626.912 870.987 625.953 867.851 625.103C860.547 623.111 853.661 621.71 847.201 620.921C849.208 612.53 852.146 605.354 856.013 599.36C863.406 598.085 871.678 598.012 880.787 599.121C887.295 599.915 894.24 601.316 901.596 603.322C933.835 612.116 974.149 632.063 1024.84 664.317C1111.37 719.343 1185.03 749.859 1245.24 755.742C1253.26 756.535 1261.04 756.884 1268.58 756.798C1276.16 756.706 1283.48 756.178 1290.57 755.197C1297.66 754.229 1304.51 752.818 1311.11 750.971C1317.73 749.107 1324.09 746.816 1330.22 744.062C1334.29 742.231 1338.25 740.211 1342.11 738.001C1344.04 736.892 1345.95 735.723 1347.84 734.507Z" fill="#306983"/>
<path d="M1415.14 691.064L1381.57 712.73C1379.69 713.945 1377.78 715.115 1375.84 716.224C1371.98 718.438 1368.02 720.468 1363.94 722.289C1357.83 725.039 1351.46 727.329 1344.85 729.19C1338.26 731.037 1331.39 732.452 1324.3 733.423C1317.22 734.391 1309.88 734.922 1302.31 735.011C1294.73 735.103 1286.92 734.751 1278.85 733.954C1270.83 733.161 1262.56 731.942 1254.06 730.28C1198.81 719.464 1133.53 690.195 1058.58 642.536C1007.88 610.286 967.569 590.339 935.331 581.545C908.561 574.243 887.407 574.968 872.234 583.703C871.559 584.084 870.895 584.496 870.245 584.914L903.814 563.248C904.46 562.82 905.128 562.418 905.8 562.027C920.972 553.292 942.126 552.567 968.896 559.869C1001.14 568.673 1041.45 588.62 1092.15 620.86C1155.53 661.164 1212.01 688.321 1261.35 702.284C1270.35 704.832 1279.11 706.94 1287.63 708.614C1296.17 710.285 1304.48 711.512 1312.54 712.299C1320.6 713.09 1328.42 713.438 1335.99 713.35C1343.56 713.258 1350.89 712.72 1357.98 711.748C1365.07 710.767 1371.91 709.36 1378.52 707.499C1385.13 705.634 1391.5 703.334 1397.61 700.574C1401.66 698.765 1405.59 696.756 1409.41 694.558C1411.35 693.435 1413.26 692.28 1415.14 691.064Z" fill="#306983"/>
<path d="M701.551 693.808C699.529 695.113 697.614 696.574 695.821 698.196C692.644 701.06 689.829 704.374 687.385 708.158C667.62 738.717 671.86 799.775 700.255 897.866C727.837 993.207 774.302 1111.27 823.498 1236.26C878.178 1375.19 934.721 1518.86 968.162 1639.43C984.973 1700.05 994.674 1750.53 997.264 1791.27C998.038 1803.49 998.18 1814.84 997.671 1825.33C986.753 1822.13 975.427 1818 963.699 1812.95C962.903 1800.38 961.418 1786.88 959.274 1772.45C954.447 1740.1 946.22 1703.04 934.596 1661.11C901.151 1540.52 844.613 1396.86 789.929 1257.93C740.733 1132.94 694.267 1014.87 666.679 919.546C634.78 809.298 633.378 745.846 662.252 719.862C664.049 718.25 665.964 716.789 667.986 715.484L668.97 714.853L701.551 693.808Z" fill="#17ACBB"/>
<path d="M769.03 650.249C766.998 651.559 765.094 653.016 763.301 654.638C760.097 657.523 757.26 660.869 754.808 664.692C750.941 670.686 747.999 677.852 745.982 686.247C743.969 694.594 742.877 704.161 742.697 714.986C742.131 748.726 750.46 794.67 767.724 854.312C795.316 949.649 841.782 1067.71 890.978 1192.7C945.648 1331.63 1002.2 1475.3 1035.64 1595.87C1062.49 1692.65 1071.18 1763.54 1061.8 1810.32C1060.09 1818.82 1057.8 1826.51 1054.9 1833.42C1047.3 1833.71 1039.44 1833.37 1031.31 1832.39C1030.24 1832.27 1029.17 1832.13 1028.09 1831.97C1029.82 1823.37 1030.92 1813.95 1031.41 1803.7C1033.62 1758.25 1023.78 1696.56 1001.9 1617.65C968.465 1497.08 911.913 1353.41 857.243 1214.48C808.037 1089.49 761.581 971.426 733.989 876.089C711.163 797.215 703.947 742.29 712.272 707.91C714.289 699.573 717.219 692.435 721.073 686.469C723.525 682.646 726.362 679.301 729.566 676.415C731.349 674.797 733.264 673.336 735.286 672.031L769.03 650.249Z" fill="#17ACBB"/>
<path d="M836.51 606.691C834.478 608 832.573 609.457 830.777 611.07C827.563 613.959 824.726 617.305 822.278 621.138C818.411 627.132 815.473 634.307 813.456 642.703C811.424 651.092 810.338 660.703 810.171 671.592C809.998 682.403 810.736 694.472 812.389 707.832C814.009 720.962 816.517 735.347 819.909 751.035C823.824 769.181 828.92 789.061 835.204 810.753C862.796 906.091 909.257 1024.14 958.454 1149.13C1013.13 1288.07 1069.68 1431.74 1103.12 1552.31C1139.88 1684.85 1142.61 1768.82 1111.47 1808.84C1111.06 1809.38 1110.65 1809.89 1110.23 1810.4C1105.99 1815.53 1101.56 1820.23 1096.91 1824.48C1090.78 1827.04 1084.42 1829.07 1077.8 1830.52C1082.03 1825.09 1085.63 1818.83 1088.59 1811.76C1107.5 1766.75 1101.13 1688.53 1069.38 1574.09C1035.94 1453.52 979.392 1309.85 924.723 1170.92C875.512 1045.92 829.061 927.868 801.469 832.531C789.735 791.981 782.127 757.765 778.633 729.408C776.988 716.126 776.253 704.126 776.437 693.37C776.603 682.48 777.69 672.869 779.721 664.48C781.728 656.088 784.67 648.923 788.533 642.919C790.995 639.092 793.828 635.736 797.042 632.847C798.829 631.238 800.743 629.778 802.765 628.472L836.51 606.691Z" fill="#17ACBB"/>
<path d="M903.814 563.248C901.792 564.554 899.878 566.014 898.081 567.627C894.893 570.494 892.078 573.808 889.638 577.603C885.768 583.587 882.822 590.742 880.787 599.121C878.762 607.497 877.661 617.102 877.491 627.981C877.303 638.785 878.037 650.844 879.676 664.198C881.306 677.382 883.818 691.835 887.227 707.599C890.543 723.004 894.723 739.662 899.752 757.627C900.642 760.812 901.562 764.043 902.508 767.311C906.279 780.351 910.406 793.798 914.843 807.647C942.856 895.053 983.292 997.787 1025.76 1105.69C1080.44 1244.63 1136.98 1388.29 1170.42 1508.87C1207.66 1643.14 1209.98 1727.56 1177.53 1766.95C1168.63 1777.75 1158.81 1786.62 1148.1 1793.54L1114.53 1815.2C1125.24 1808.29 1135.06 1799.42 1143.97 1788.62C1176.42 1749.24 1174.1 1664.81 1136.86 1530.54C1103.41 1409.96 1046.87 1266.29 992.188 1127.36C942.992 1002.37 896.53 884.314 868.938 788.976C867.993 785.709 867.073 782.477 866.183 779.292C861.179 761.423 857.017 744.839 853.705 729.502C850.291 713.728 847.771 699.255 846.138 686.061C844.481 672.691 843.732 660.626 843.916 649.811C844.083 638.922 845.169 629.311 847.2 620.922C849.208 612.53 852.146 605.354 856.012 599.36C858.471 595.524 861.308 592.178 864.511 589.292C866.308 587.68 868.223 586.219 870.245 584.914L903.814 563.248Z" fill="#17ACBB"/>
<defs>
<filter id="filter0_b_102_18" x="1147.52" y="-278" width="367.868" height="1017.01" filterUnits="userSpaceOnUse" color-interpolation-filters="sRGB">
<feFlood flood-opacity="0" result="BackgroundImageFix"/>
<feGaussianBlur in="BackgroundImageFix" stdDeviation="2"/>
<feComposite in2="SourceAlpha" operator="in" result="effect1_backgroundBlur_102_18"/>
<feBlend mode="normal" in="SourceGraphic" in2="effect1_backgroundBlur_102_18" result="shape"/>
</filter>
</defs>
</svg>
